<svg xmlns="http://www.w3.org/2000/svg" width="94" height="94" viewBox="0 0 94 94"><defs><style>.a{fill:#f1f1f1;}.b{fill:#047CCF;}</style></defs><g transform="translate(-1568 -270)"><circle class="a" cx="47" cy="47" r="47" transform="translate(1568 270)"/><g transform="translate(1883 -374.248)"><g transform="translate(-293 666.247)"><path class="b" d="M21.839,964.362a1.269,1.269,0,0,0-.766.353l-10.7,10.62a1.271,1.271,0,0,0-.373.883v37.14a1.306,1.306,0,0,0,1.257,1.256H46.441a1.306,1.306,0,0,0,1.257-1.256V996.4c0-.039,0-.079,0-.118l11.564-11.562a3.494,3.494,0,0,0,.9-1.413,2.722,2.722,0,0,0,.079-.923,1.267,1.267,0,0,0-.353-.707l-2.513-2.513a1.265,1.265,0,0,0-.628-.334,2.024,2.024,0,0,0-.373-.039,2.352,2.352,0,0,0-.589.1,3.429,3.429,0,0,0-1.433.9L47.7,986.446V965.618a1.306,1.306,0,0,0-1.257-1.256h-24.6Zm2.611,2.513H45.184v22.084l-7.461,7.459c-.026-.008-.052-.014-.079-.02H19.935a1.258,1.258,0,1,0,.118,2.513H35.23l-2.867,2.866a1.262,1.262,0,0,0-.334.55l-1.257,4.4a1.325,1.325,0,0,0,1.571,1.551l4.4-1.256a1.258,1.258,0,0,0,.53-.314l7.912-7.911V1012.1H12.513V978.81H23.194a1.306,1.306,0,0,0,1.257-1.256Zm-2.513.53V976.3H12.945Zm-2,13.918a1.258,1.258,0,1,0,.118,2.513h18.22a1.256,1.256,0,1,0,0-2.513H19.935Zm36.244.2,1.355,1.354c-7.2,7.236-14.536,14.554-21.794,21.809l-1.9.55.55-1.924,21.794-21.789Zm-33.1,7.342a1.258,1.258,0,1,0,.118,2.513H38.273a1.256,1.256,0,1,0,0-2.513h-15.2Z" transform="translate(-10 -964.362)"/></g></g></g></svg>