<svg xmlns="http://www.w3.org/2000/svg" width="94" height="94" viewBox="0 0 94 94"><defs><style>.a{fill:#f1f1f1;}.b{fill:#047CCF;stroke:#047CCF;}</style></defs><g transform="translate(-1107.299 -280.299)"><circle class="a" cx="47" cy="47" r="47" transform="translate(1107.299 280.299)"/><g transform="translate(1126.453 299.697)"><path class="b" d="M53.422,6.6H48.445V5.677A3.677,3.677,0,0,0,44.768,2h-.919a3.677,3.677,0,0,0-3.677,3.677V7.056H25.465V5.677A3.677,3.677,0,0,0,21.788,2h-.919a3.677,3.677,0,0,0-3.677,3.677V6.6H12.216A4.228,4.228,0,0,0,8,10.824v16.7a.919.919,0,0,0,1.838,0V19.465H43.849a.919.919,0,1,0,0-1.838H9.838v-6.8a2.39,2.39,0,0,1,2.377-2.39h4.977v1.838a3.677,3.677,0,0,0,3.677,3.677h.919a3.677,3.677,0,0,0,3.677-3.677V8.894H40.172v1.379a3.677,3.677,0,0,0,3.677,3.677h.919a3.677,3.677,0,0,0,3.677-3.677V8.434h4.977a2.39,2.39,0,0,1,2.377,2.39v6.8H50.284a.919.919,0,0,0,0,1.838H55.8V45.571a2.39,2.39,0,0,1-2.377,2.39h-20.6a.919.919,0,1,0,0,1.838h20.6a4.228,4.228,0,0,0,4.215-4.228V10.824A4.228,4.228,0,0,0,53.422,6.6Zm-29.8,3.677a1.838,1.838,0,0,1-1.838,1.838h-.919a1.838,1.838,0,0,1-1.838-1.838v-4.6a1.838,1.838,0,0,1,1.838-1.838h.919a1.838,1.838,0,0,1,1.838,1.838Zm22.98,0a1.838,1.838,0,0,1-1.838,1.838h-.919a1.838,1.838,0,0,1-1.838-1.838v-4.6a1.838,1.838,0,0,1,1.838-1.838h.919a1.838,1.838,0,0,1,1.838,1.838Z" transform="translate(-2.485 -2)"/><path class="b" d="M15.788,32A13.788,13.788,0,1,0,29.576,45.788,13.788,13.788,0,0,0,15.788,32Zm0,25.738a11.95,11.95,0,1,1,11.95-11.95A11.95,11.95,0,0,1,15.788,57.738Z" transform="translate(-2 -4.424)"/><path class="b" d="M22.434,45.434h-4.6V39.919a.919.919,0,1,0-1.838,0v7.354h6.434a.919.919,0,1,0,0-1.838Z" transform="translate(-3.131 -4.989)"/></g></g></svg>