
<svg xmlns="http://www.w3.org/2000/svg" version="1.1" width="1982px" height="2046px" style="shape-rendering:geometricPrecision; text-rendering:geometricPrecision; image-rendering:optimizeQuality; fill-rule:evenodd; clip-rule:evenodd" xmlns:xlink="http://www.w3.org/1999/xlink">
<g><path style="opacity:1" fill="#f1f1f1" d="M 1981.5,974.5 C 1981.5,1006.5 1981.5,1038.5 1981.5,1070.5C 1964.85,1334.58 1862.18,1558.42 1673.5,1742C 1507.38,1897.35 1310.38,1986.69 1082.5,2010C 821.198,2030.79 586.864,1962.12 379.5,1804C 201.38,1662.07 83.8799,1480.24 27,1258.5C 12.2623,1196.5 3.0956,1133.83 -0.5,1070.5C -0.5,1038.5 -0.5,1006.5 -0.5,974.5C 16.15,710.417 118.817,486.584 307.5,303C 485.651,137.314 696.984,46.9806 941.5,32C 1206.97,22.4795 1440.3,103.146 1641.5,274C 1835.1,446.006 1946.93,661.506 1977,920.5C 1978.59,938.648 1980.09,956.648 1981.5,974.5 Z"/></g>
<g><path style="opacity:1" fill="#047ccf" d="M 970.5,415.5 C 1097.52,412.6 1199.35,461.267 1276,561.5C 1335.6,647.83 1354.6,742.497 1333,845.5C 1307.62,946.838 1249.79,1023.34 1159.5,1075C 1046.83,1133 934.167,1133 821.5,1075C 736.906,1026.38 680.406,955.211 652,861.5C 622.196,741.751 645.862,634.084 723,538.5C 788.818,464.342 871.318,423.342 970.5,415.5 Z"/></g>
<g><path style="opacity:1" fill="#047ccf" d="M 780.5,1278.5 C 791.873,1278.21 803.206,1278.71 814.5,1280C 841.204,1288.09 868.204,1295.09 895.5,1301C 983.084,1317.9 1069.08,1311.9 1153.5,1283C 1168.92,1278.88 1184.58,1277.55 1200.5,1279C 1333.41,1287.04 1442.24,1341.87 1527,1443.5C 1545.28,1466.54 1561.45,1491.04 1575.5,1517C 1447.41,1666.07 1285.41,1754.74 1089.5,1783C 880.528,1807.02 692.195,1756.35 524.5,1631C 480.68,1597.52 441.013,1559.52 405.5,1517C 463.535,1410.31 550.202,1337.64 665.5,1299C 703.124,1287.4 741.458,1280.56 780.5,1278.5 Z"/></g>
</svg>
