<svg xmlns="http://www.w3.org/2000/svg" width="94" height="94" viewBox="0 0 94 94"><defs><style>.a{fill:#f1f1f1;}.b{fill:#047CCF;stroke:#047CCF;stroke-width:0.3px;}</style></defs><g transform="translate(-57.563 -280.563)"><g transform="translate(58 281)"><circle class="a" cx="47" cy="47" r="47" transform="translate(-0.438 -0.438)"/><g transform="translate(11.258 27.43)"><g transform="translate(25.235)"><path class="b" d="M369.285,225.708a10.434,10.434,0,0,1-.061,1.063c-.008.071-.053.386,0,.021-.013.092-.028.183-.044.275-.036.217-.081.432-.129.647-.084.377-.19.75-.307,1.118-.06.188-.125.373-.192.558-.034.093-.07.185-.105.278-.023.058-.194.466-.059.152a14.322,14.322,0,0,1-1.18,2.194c-.108.166-.222.327-.337.488-.057.08-.116.158-.176.237.2-.26-.005,0-.04.046a11.214,11.214,0,0,1-.838.924c-.133.132-.272.259-.413.383-.071.062-.523.423-.24.207a7.762,7.762,0,0,1-.979.633c-.154.084-.312.16-.472.232.328-.148.055-.024-.013,0s-.162.059-.244.086c-.162.055-.328.1-.495.139-.083.02-.167.036-.251.052-.372.071.153-.011-.081.014a5.155,5.155,0,0,1-1.03,0c-.3-.028.3.048,0,0-.084-.013-.168-.031-.252-.048a5.6,5.6,0,0,1-.578-.158c-.082-.026-.163-.056-.244-.086s-.344-.146-.013,0c-.161-.07-.317-.15-.472-.232a7.675,7.675,0,0,1-.979-.633c.285.213-.168-.145-.24-.207-.142-.123-.278-.252-.413-.383a11.087,11.087,0,0,1-.838-.924c-.035-.043-.238-.3-.04-.046-.06-.078-.118-.157-.176-.237-.117-.16-.228-.323-.337-.488-.239-.36-.456-.734-.661-1.114-.189-.352-.36-.714-.52-1.08.131.3,0-.008-.023-.06-.037-.092-.072-.185-.107-.277-.082-.215-.156-.432-.227-.651-.12-.368-.22-.742-.307-1.118-.043-.184-.079-.369-.113-.555-.017-.092-.031-.184-.046-.275q-.032-.217.007.069-.012-.091-.022-.181a9.645,9.645,0,0,1-.061-1.063c0-.206.009-.412.022-.617.007-.1.017-.2.027-.3q.026-.222-.008.041.015-.1.031-.2a8.394,8.394,0,0,1,.282-1.158c.059-.187.127-.372.2-.554.122-.31-.112.252.023-.051.053-.118.111-.235.169-.35a8.462,8.462,0,0,1,.6-.995c.055-.079.112-.157.17-.234-.2.264,0,0,.037-.042.142-.174.293-.34.449-.5a8.506,8.506,0,0,1,.857-.773c-.257.2,0,0,.048-.03.078-.057.158-.111.238-.164.187-.126.382-.241.578-.352.141-.079.286-.152.431-.223l.176-.083c.3-.139-.257.1.052-.023a8.407,8.407,0,0,1,1.029-.336c.161-.042.323-.077.486-.109.079-.016.61-.093.254-.048a8.56,8.56,0,0,1,1.126-.061c.171,0,.343.01.514.022.081.005.619.069.263.02a8.408,8.408,0,0,1,1.073.228c.159.044.315.095.47.147.093.032.185.066.276.1.055.021.36.152.054.019a8.425,8.425,0,0,1,.948.491c.139.082.273.171.407.261.064.043.476.351.206.141a8.5,8.5,0,0,1,1.426,1.426c-.213-.268.1.142.141.206.11.159.211.324.31.49a8.428,8.428,0,0,1,.442.865c-.142-.317.061.163.088.237.068.185.126.374.18.563a8.424,8.424,0,0,1,.228,1.074c-.054-.355.013.182.019.263.016.205.021.411.022.617a1.288,1.288,0,1,0,2.577,0,9.748,9.748,0,0,0-18.884-3.386,10.151,10.151,0,0,0-.442,5.246,14.733,14.733,0,0,0,1.7,4.808,12.607,12.607,0,0,0,3.2,3.891,7.706,7.706,0,0,0,4.683,1.794,7.6,7.6,0,0,0,4.683-1.794,12.782,12.782,0,0,0,3.2-3.891,14.776,14.776,0,0,0,1.7-4.808,12.279,12.279,0,0,0,.168-1.861,1.288,1.288,0,1,0-2.577,0Z" transform="translate(-352.385 -215.982)"/></g><g transform="translate(16.727 22.509)"><path class="b" d="M270.737,531.7v6.764l1.288-1.288h-33.91l1.288,1.288V531.7c0-.172.006-.343.015-.515.005-.1.014-.2.023-.3q.009-.1.021-.2-.038.263-.006.043a8.627,8.627,0,0,1,.26-1.163c.055-.188.119-.374.187-.558.034-.092.07-.182.107-.273-.131.323.04-.077.068-.136a8.68,8.68,0,0,1,.571-1.008c.1-.161.218-.318.333-.471-.2.264,0,0,.037-.04.081-.1.166-.195.251-.29a8.735,8.735,0,0,1,.975-.923c.253-.208-.219.163.043-.034.1-.077.208-.15.314-.222.186-.127.379-.243.574-.355s.4-.214.6-.311c.053-.025.357-.156.048-.027.12-.05.242-.1.364-.141a8.629,8.629,0,0,1,1.333-.363c.1-.019.2-.035.3-.051q.22-.032-.043.006l.2-.021c.238-.024.477-.033.715-.038.189,0,.378,0,.566,0h1.566l-.911-.377,6.256,7.8.011.014a1.281,1.281,0,0,0,1.822,0l6.208-7.809.007-.009-.911.377c.711,0,1.422,0,2.133,0,.171,0,.342.01.512.021.1.006.2.017.3.026.343.034-.282-.044.058.005a8.635,8.635,0,0,1,1.068.233c.158.044.314.1.469.148.093.032.184.066.275.1.055.021.36.152.053.019a8.639,8.639,0,0,1,.947.488c.139.082.273.169.407.258.08.053.158.109.237.165.047.034.306.234.046.031a8.747,8.747,0,0,1,.786.7c.113.113.221.231.328.35.064.072.126.145.187.219.037.044.238.3.037.041a8.687,8.687,0,0,1,.587.881c.082.139.157.282.231.425.044.086.086.174.128.262.025.053.156.357.027.048a8.622,8.622,0,0,1,.569,2.093c-.052-.356.011.181.017.262.016.2.02.41.022.616a1.288,1.288,0,1,0,2.577,0,9.971,9.971,0,0,0-10.053-9.973h-1.548a1.574,1.574,0,0,0-1.357.432l-6.172,7.763h1.822l-6.256-7.8c-.385-.48-1.1-.391-1.65-.391h-1.3a9.97,9.97,0,0,0-9.973,10v6.738a1.3,1.3,0,0,0,1.288,1.288h33.91a1.3,1.3,0,0,0,1.288-1.288V531.7a1.288,1.288,0,1,0-2.577,0Z" transform="translate(-236.827 -521.723)"/></g><g transform="translate(47.62 4.847)"><g transform="translate(0 0)"><path class="b" d="M675.907,289.648c0,.176-.008.351-.02.526-.006.09-.015.179-.024.268-.032.316.045-.3,0,.02a9.592,9.592,0,0,1-.264,1.2,10.9,10.9,0,0,1-.384,1.112c-.126.313.111-.251-.026.058-.04.091-.083.181-.126.271-.1.21-.208.416-.321.619a10.641,10.641,0,0,1-.636,1c-.057.08-.116.158-.175.236.2-.26,0,0-.041.044-.142.173-.293.338-.448.5-.13.136-.267.265-.406.391-.069.062-.14.122-.211.181-.243.2.224-.164-.027.024a5.763,5.763,0,0,1-.989.593c-.275.131.271-.106-.011,0-.08.031-.162.058-.243.085a4.357,4.357,0,0,1-.5.127c-.079.016-.375.05.005,0-.085.01-.17.015-.256.019a3.986,3.986,0,0,1-.6-.019c.409.04-.138-.034-.244-.06a4.5,4.5,0,0,1-.489-.156c-.284-.105.266.121-.011,0-.08-.036-.157-.076-.235-.116a5.7,5.7,0,0,1-.533-.32c-.075-.05-.148-.1-.221-.157-.254-.185.218.176-.027-.024-.144-.118-.281-.244-.416-.372s-.268-.269-.4-.409c-.065-.071-.128-.144-.19-.217-.041-.048-.309-.386-.1-.118a10.762,10.762,0,0,1-1.257-2.131c-.139-.308.1.254-.026-.058-.038-.091-.073-.184-.108-.276-.07-.183-.133-.369-.192-.556a10.058,10.058,0,0,1-.3-1.205c-.017-.091-.032-.183-.046-.275-.05-.317.035.3,0-.02-.02-.177-.031-.355-.039-.533s-.005-.38,0-.57c0-.1.013-.2.021-.305q.009-.1.022-.2-.036.264,0,.044a6.513,6.513,0,0,1,.305-1.145c.02-.055.147-.362.015-.054.038-.089.08-.177.123-.264a6.515,6.515,0,0,1,.329-.591c.1-.164.213-.321.327-.475-.2.264,0,.006.039-.039.062-.073.127-.144.191-.215.13-.141.268-.274.41-.4.071-.065.144-.127.218-.188q.166-.133-.035.023.077-.058.155-.114a6.568,6.568,0,0,1,1-.585c.053-.026.358-.152.049-.026.091-.037.182-.07.275-.1a6.5,6.5,0,0,1,.662-.193c.1-.023.194-.043.292-.062.06-.012.4-.061.054-.016.2-.027.406-.039.609-.047s.412,0,.617.009c.1.006.2.016.3.026q.222.026-.043-.007.1.015.2.034a6.519,6.519,0,0,1,1.138.322c.311.117-.251-.114.052.021.089.039.175.083.262.126a6.548,6.548,0,0,1,.586.337c.081.052.16.107.239.162.048.033.3.235.046.03.151.119.293.248.433.38s.27.272.4.416c.064.072.124.146.185.221-.216-.265.048.071.085.125a6.576,6.576,0,0,1,.444.746c.036.07.243.544.111.223.062.151.115.306.165.461a6.537,6.537,0,0,1,.21.867q.034.22,0-.044c.013.1.022.2.03.3.014.17.018.342.02.513a1.288,1.288,0,0,0,2.577,0,7.855,7.855,0,0,0-11.974-6.677,8.006,8.006,0,0,0-3.341,4.261c-1.151,3.373.368,7.345,2.644,9.888a6.936,6.936,0,0,0,4.481,2.382,6.252,6.252,0,0,0,4.634-1.845,10.776,10.776,0,0,0,2.526-3.616,11.063,11.063,0,0,0,1.031-4.394,1.288,1.288,0,1,0-2.577,0Z" transform="translate(-662.774 -281.815)"/></g></g><g transform="translate(54.219 23.043)"><g transform="translate(0 0)"><path class="b" d="M754.6,537.076l4.82-5.9-.911.377h1.341c.214,0,.428,0,.643.012.1.005.2.015.3.025.342.034-.282-.045.056.008a6.681,6.681,0,0,1,.678.149c.189.051.375.114.56.181.056.02.36.149.053.017.089.038.176.081.264.123a6.737,6.737,0,0,1,1.065.655c-.265-.2-.006,0,.039.037.074.061.145.126.216.19.142.129.276.266.406.406.065.07.128.143.19.216.038.044.237.3.037.039a6.677,6.677,0,0,1,.376.557c.1.164.192.335.278.508.044.087.083.175.123.264-.137-.3,0,0,.017.053a6.711,6.711,0,0,1,.33,1.238c.059.337-.03-.286.008.056.011.1.018.2.025.3.009.138.012.277.012.416v5.24l1.288-1.288H753.69a1.288,1.288,0,0,0,0,2.577h13.129a1.3,1.3,0,0,0,1.288-1.288v-5.181a8.138,8.138,0,0,0-5.7-7.746,12.582,12.582,0,0,0-3.832-.342c-.9,0-1.367.858-1.871,1.474l-3.828,4.684-.1.116a1.315,1.315,0,0,0,0,1.822,1.291,1.291,0,0,0,1.822,0Z" transform="translate(-752.402 -528.977)"/></g></g><g transform="translate(6.588 4.847)"><g transform="translate(0 0)"><path class="b" d="M105.907,289.648c0,.176-.008.351-.02.526-.006.09-.015.179-.024.268-.032.316.045-.3,0,.02a9.608,9.608,0,0,1-.264,1.2,10.909,10.909,0,0,1-.384,1.112c-.126.313.111-.251-.026.058-.04.091-.083.181-.126.271-.1.21-.209.416-.321.619a10.652,10.652,0,0,1-.636,1c-.057.08-.116.158-.175.236.2-.26-.005,0-.041.044-.142.173-.293.338-.448.5-.13.136-.267.265-.406.391-.069.062-.14.122-.211.181-.243.2.224-.164-.027.024a5.766,5.766,0,0,1-.989.593c-.275.131.271-.106-.011,0-.08.031-.162.058-.243.085a4.348,4.348,0,0,1-.5.127c-.079.016-.375.05.005,0-.085.01-.171.015-.256.019a3.986,3.986,0,0,1-.6-.019c.409.04-.138-.034-.244-.06a4.509,4.509,0,0,1-.49-.156c-.284-.105.266.121-.011,0-.08-.036-.157-.076-.235-.116a5.707,5.707,0,0,1-.533-.32c-.075-.05-.148-.1-.221-.157-.254-.185.218.176-.027-.024-.144-.118-.282-.244-.416-.372s-.268-.269-.4-.409c-.065-.071-.127-.144-.19-.217-.041-.048-.31-.386-.1-.118a10.762,10.762,0,0,1-1.257-2.131c-.139-.308.1.254-.026-.058-.038-.091-.073-.184-.108-.276-.07-.183-.132-.369-.192-.556a10.069,10.069,0,0,1-.3-1.205c-.017-.091-.032-.183-.046-.275-.05-.317.035.3,0-.02-.02-.177-.031-.355-.039-.533s-.005-.38,0-.57c0-.1.013-.2.021-.305q.009-.1.022-.2-.036.264,0,.044a6.509,6.509,0,0,1,.305-1.145c.02-.055.147-.362.015-.054.038-.089.08-.177.122-.264a6.532,6.532,0,0,1,.329-.591c.1-.164.213-.321.327-.475-.2.264,0,.006.039-.039.062-.073.127-.144.191-.215.13-.141.268-.274.41-.4.071-.065.144-.127.218-.188q.166-.133-.035.023.077-.058.155-.114a6.568,6.568,0,0,1,1-.585c.053-.026.358-.152.049-.026.09-.037.182-.07.275-.1a6.512,6.512,0,0,1,.662-.193c.1-.023.195-.043.292-.062.06-.012.4-.061.054-.016.2-.027.405-.039.609-.047s.412,0,.617.009c.1.006.2.016.3.026q.222.026-.043-.007.1.015.2.034a6.513,6.513,0,0,1,1.138.322c.311.117-.251-.114.052.021.089.039.176.083.262.126a6.549,6.549,0,0,1,.586.337c.081.052.16.107.239.162.048.033.3.235.046.03.151.119.293.248.433.38s.27.272.4.416c.064.072.124.146.185.221-.216-.265.048.071.086.125a6.579,6.579,0,0,1,.444.746c.036.07.243.544.111.223.062.151.115.306.165.461a6.52,6.52,0,0,1,.21.867q.034.22,0-.044c.013.1.022.2.03.3.015.17.018.342.02.513a1.288,1.288,0,0,0,2.577,0,7.855,7.855,0,0,0-11.974-6.677,8.005,8.005,0,0,0-3.342,4.261c-1.151,3.373.368,7.345,2.644,9.888a6.937,6.937,0,0,0,4.481,2.382,6.253,6.253,0,0,0,4.634-1.845,10.775,10.775,0,0,0,2.526-3.616,11.066,11.066,0,0,0,1.031-4.394,1.288,1.288,0,1,0-2.577,0Z" transform="translate(-92.774 -281.815)"/></g></g><g transform="translate(0 23.039)"><g transform="translate(0 0)"><path class="b" d="M17.765,540.907H4.6L5.885,542.2v-5.181q0-.288.019-.576c.007-.1.018-.2.03-.3-.039.342,0,.007.014-.054a6.705,6.705,0,0,1,.159-.675c.053-.188.119-.373.189-.556.118-.31-.114.252.022-.05.04-.088.083-.175.127-.261.087-.172.184-.339.285-.5.05-.082.1-.162.158-.241.036-.054.3-.4.084-.125a6.767,6.767,0,0,1,.789-.834c.071-.064.145-.126.218-.187.251-.209-.22.161.043-.033.18-.133.37-.254.563-.369.166-.1.338-.187.512-.271.053-.026.357-.155.048-.027.09-.037.182-.071.273-.1a6.7,6.7,0,0,1,1.245-.312c-.355.056.178-.012.26-.017.138-.009.276-.012.414-.012H12.9l-.911-.378,4.86,5.9a1.291,1.291,0,0,0,1.822,0,1.315,1.315,0,0,0,0-1.822l-3.431-4.163-1.408-1.709c-.406-.492-1.116-.4-1.683-.4a14.524,14.524,0,0,0-1.637.049,8,8,0,0,0-7.182,7.362c-.082.838-.028,1.7-.028,2.545V542.2A1.3,1.3,0,0,0,4.6,543.484H17.765a1.288,1.288,0,1,0,0-2.577Z" transform="translate(-3.29 -528.92)"/></g></g></g></g></g></svg>